<?xml version="1.0" standalone="no"?>
<!DOCTYPE svg PUBLIC "-//W3C//DTD SVG 20010904//EN"
 "http://www.w3.org/TR/2001/REC-SVG-20010904/DTD/svg10.dtd">
<svg version="1.0" xmlns="http://www.w3.org/2000/svg"
 width="500.000000pt" height="500.000000pt" viewBox="0 0 500.000000 500.000000"
 preserveAspectRatio="xMidYMid meet">
<metadata>
Created by potrace 1.11, written by Peter Selinger 2001-2013
</metadata>
<g transform="translate(0.000000,500.000000) scale(0.100000,-0.100000)"
fill="#000000" stroke="none">
<path d="M0 2500 l0 -2500 2500 0 2500 0 0 2500 0 2500 -2500 0 -2500 0 0
-2500z m2760 1550 c226 -55 412 -159 556 -311 154 -164 254 -400 254 -600 0
-48 -4 -60 -22 -73 -20 -14 -136 -16 -1048 -16 -935 0 -1028 1 -1049 16 -23
16 -23 21 -19 118 14 291 215 590 508 754 108 60 256 110 397 132 94 15 326 4
423 -20z m-849 -1185 l116 -56 114 56 c63 30 119 55 125 55 6 0 63 -25 126
-55 l116 -55 116 55 c64 30 120 55 125 55 5 0 61 -25 125 -55 l116 -54 116 54
c64 30 120 55 125 55 16 0 262 -120 281 -137 35 -32 10 -93 -39 -93 -13 0 -72
24 -131 54 l-108 54 -113 -54 c-63 -30 -122 -54 -131 -54 -9 0 -68 24 -131 54
l-113 54 -108 -54 c-59 -30 -117 -54 -128 -54 -11 0 -71 24 -133 53 l-113 54
-105 -53 c-57 -29 -117 -53 -134 -53 -16 0 -77 24 -134 53 l-105 53 -114 -54
c-124 -59 -159 -63 -178 -24 -23 45 -5 62 137 133 74 36 141 67 149 67 8 1 67
-24 131 -54z m1582 -317 l21 -28 -21 -27 -20 -28 -972 -3 -972 -2 -24 24 c-14
14 -25 30 -25 36 0 6 11 22 25 36 l24 24 972 -2 972 -3 20 -27z m-1846 -244
c15 -24 15 -29 2 -53 -13 -23 -22 -26 -75 -29 -67 -3 -86 9 -86 53 0 42 19 55
83 55 52 0 60 -3 76 -26z m267 10 c9 -8 16 -26 16 -39 0 -43 -24 -55 -110 -55
-86 0 -110 12 -110 55 0 43 24 55 110 55 58 0 83 -4 94 -16z m283 -10 c15 -24
15 -29 2 -53 -14 -25 -18 -26 -104 -26 -86 0 -90 1 -104 26 -13 24 -13 29 2
53 17 25 22 26 102 26 80 0 85 -1 102 -26z m267 10 c9 -8 16 -26 16 -39 0 -43
-24 -55 -110 -55 -86 0 -110 12 -110 55 0 43 24 55 110 55 58 0 83 -4 94 -16z
m283 -10 c15 -24 15 -29 2 -53 -14 -25 -18 -26 -104 -26 -86 0 -90 1 -104 26
-13 24 -13 29 2 53 17 25 22 26 102 26 80 0 85 -1 102 -26z m267 10 c9 -8 16
-26 16 -39 0 -43 -24 -55 -110 -55 -86 0 -110 12 -110 55 0 43 24 55 110 55
58 0 83 -4 94 -16z m283 -10 c15 -24 15 -29 2 -53 -14 -25 -18 -26 -104 -26
-86 0 -90 1 -104 26 -13 24 -13 29 2 53 17 25 22 26 102 26 80 0 85 -1 102
-26z m215 9 c22 -20 23 -51 1 -75 -12 -13 -31 -18 -73 -18 -64 0 -80 11 -80
55 0 17 5 36 12 43 18 18 118 15 140 -5z m-75 -217 c48 -20 98 -73 119 -122 9
-22 14 -73 14 -146 0 -134 -15 -175 -80 -231 l-44 -37 -948 0 -948 0 -45 41
c-65 60 -77 102 -73 246 3 111 5 123 31 161 34 51 90 90 148 101 24 5 436 8
914 8 823 -2 872 -3 912 -21z m-1657 -746 c0 -20 -5 -30 -15 -30 -8 0 -15 -7
-15 -15 0 -12 13 -15 60 -15 47 0 60 3 60 15 0 8 -7 15 -15 15 -10 0 -15 10
-15 30 0 30 1 30 55 30 54 0 55 0 55 -30 0 -20 -5 -30 -15 -30 -12 0 -15 -14
-15 -65 0 -51 3 -65 15 -65 10 0 15 -10 15 -30 0 -30 -1 -30 -55 -30 -54 0
-55 0 -55 30 0 20 5 30 15 30 9 0 15 9 15 25 0 24 -3 25 -60 25 -57 0 -60 -1
-60 -25 0 -16 6 -25 15 -25 10 0 15 -10 15 -30 0 -30 -1 -30 -55 -30 -54 0
-55 0 -55 30 0 20 5 30 15 30 12 0 15 14 15 65 0 51 -3 65 -15 65 -10 0 -15
10 -15 30 0 30 1 30 55 30 54 0 55 0 55 -30z m414 -9 c27 -28 31 -38 31 -86 0
-48 -4 -58 -33 -87 -29 -29 -39 -33 -87 -33 -48 0 -58 4 -87 33 -29 29 -33 39
-33 86 0 44 5 59 25 81 34 37 57 45 109 41 32 -3 51 -12 75 -35z m204 -49 c19
-45 39 -79 43 -75 4 5 21 42 37 83 l30 75 51 3 c51 3 51 3 51 -27 0 -17 -4
-31 -10 -31 -6 0 -10 -28 -10 -65 0 -37 4 -65 10 -65 6 0 10 -13 10 -30 0 -29
-2 -30 -45 -30 -43 0 -45 1 -45 29 0 16 5 31 11 33 6 2 9 26 7 58 l-3 55 -35
-85 c-30 -73 -39 -85 -61 -88 -23 -3 -29 5 -67 90 l-41 93 -1 -62 c0 -36 4
-63 10 -63 6 0 10 -13 10 -30 0 -29 -1 -30 -50 -30 -49 0 -50 1 -50 30 0 20 5
30 15 30 12 0 15 14 15 65 0 37 -4 65 -10 65 -5 0 -10 14 -10 31 0 30 0 30 51
27 l51 -3 36 -83z m452 48 c0 -36 -2 -40 -25 -40 -14 0 -25 5 -25 10 0 6 -16
10 -35 10 -28 0 -35 -4 -35 -20 0 -16 7 -20 30 -20 25 0 30 -4 30 -25 0 -21
-5 -25 -30 -25 -23 0 -30 -4 -30 -20 0 -16 7 -20 35 -20 24 0 35 5 35 15 0 9
9 15 25 15 23 0 25 -4 25 -45 l0 -45 -100 0 -100 0 0 30 c0 20 5 30 15 30 12
0 15 14 15 65 0 51 -3 65 -15 65 -10 0 -15 10 -15 30 l0 30 100 0 100 0 0 -40z
m130 10 c0 -20 -5 -30 -15 -30 -12 0 -15 -14 -15 -70 l0 -70 35 0 c28 0 35 4
35 20 0 15 7 20 25 20 23 0 25 -4 25 -45 l0 -45 -100 0 -100 0 0 25 c0 16 6
25 15 25 12 0 15 14 15 70 0 56 -3 70 -15 70 -10 0 -15 10 -15 30 0 30 1 30
55 30 54 0 55 0 55 -30z m207 -10 c-6 -50 16 -76 39 -45 9 12 11 21 4 23 -5 2
-10 17 -10 33 0 29 1 29 55 29 51 0 55 -2 55 -24 0 -15 -18 -41 -50 -73 -49
-49 -66 -93 -35 -93 10 0 15 -10 15 -30 0 -30 -1 -30 -55 -30 -54 0 -55 0 -55
30 0 20 5 30 15 30 32 0 16 51 -30 98 -28 28 -45 54 -45 68 0 22 4 24 51 24
l52 0 -6 -40z m-967 -355 c0 -41 -2 -45 -25 -45 -16 0 -25 6 -25 15 0 10 -11
15 -35 15 -28 0 -35 -4 -35 -20 0 -16 7 -20 30 -20 25 0 30 -4 30 -25 0 -21
-5 -25 -30 -25 -23 0 -30 -4 -30 -20 0 -11 7 -20 15 -20 10 0 15 -10 15 -30 0
-30 -1 -30 -55 -30 -54 0 -55 0 -55 30 0 20 5 30 15 30 12 0 15 14 15 65 0 51
-3 65 -15 65 -10 0 -15 10 -15 30 l0 30 100 0 100 0 0 -45z m224 6 c27 -28 31
-38 31 -86 0 -48 -4 -58 -33 -87 -29 -29 -39 -33 -87 -33 -48 0 -58 4 -87 33
-29 29 -33 39 -33 86 0 44 5 59 25 81 34 37 57 45 109 41 32 -3 51 -12 75 -35z
m270 0 c27 -28 31 -38 31 -86 0 -48 -4 -58 -33 -87 -29 -29 -39 -33 -87 -33
-48 0 -58 4 -87 33 -29 29 -33 39 -33 86 0 44 5 59 25 81 34 37 57 45 109 41
32 -3 51 -12 75 -35z m217 16 c39 -26 59 -60 59 -102 0 -42 -20 -76 -59 -102
-27 -18 -48 -23 -102 -23 -67 0 -69 1 -69 25 0 16 6 25 15 25 12 0 15 15 15
75 0 60 -3 75 -15 75 -9 0 -15 9 -15 25 0 24 2 25 69 25 54 0 75 -5 102 -23z
m-1321 -372 c0 -8 5 -15 10 -15 6 0 10 7 10 15 0 8 5 15 10 15 6 0 10 -16 10
-35 0 -35 -13 -47 -24 -22 -5 10 -7 10 -12 0 -12 -27 -34 -13 -34 22 0 24 5
35 15 35 8 0 15 -7 15 -15z m146 0 c-11 -8 -15 -15 -9 -15 6 0 13 -9 16 -20 4
-17 0 -20 -24 -20 -26 0 -29 3 -29 35 0 33 2 35 33 35 30 -1 31 -1 13 -15z
m121 -23 c11 -28 11 -32 -2 -32 -8 0 -15 5 -15 11 0 8 -5 7 -15 -1 -22 -18
-27 -8 -14 29 13 38 28 36 46 -7z m93 13 c0 -16 6 -25 15 -25 8 0 15 -4 15
-10 0 -5 -13 -10 -30 -10 -28 0 -30 3 -30 35 0 24 5 35 15 35 9 0 15 -9 15
-25z m130 15 c0 -5 -4 -10 -10 -10 -5 0 -10 -11 -10 -25 0 -14 -4 -25 -10 -25
-5 0 -10 11 -10 25 0 14 -4 25 -10 25 -5 0 -10 5 -10 10 0 6 14 10 30 10 17 0
30 -4 30 -10z m80 -5 c0 -8 5 -15 10 -15 6 0 10 7 10 15 0 8 5 15 10 15 6 0
10 -16 10 -35 0 -35 -13 -47 -24 -22 -5 10 -7 10 -12 0 -12 -27 -34 -13 -34
22 0 24 5 35 15 35 8 0 15 -7 15 -15z m128 3 c9 -9 12 -9 12 0 0 7 6 12 14 12
11 0 10 -6 -3 -35 -9 -19 -18 -34 -21 -35 -3 0 -10 16 -16 35 -11 36 -7 44 14
23z m219 -26 c11 -28 11 -32 -2 -32 -8 0 -15 5 -15 11 0 8 -5 7 -15 -1 -22
-18 -27 -8 -14 29 13 38 28 36 46 -7z m99 21 c13 -17 13 -17 14 0 0 33 20 17
20 -18 0 -37 -8 -43 -28 -23 -9 9 -12 9 -12 0 0 -7 -7 -12 -15 -12 -10 0 -15
11 -15 35 0 38 15 45 36 18z m155 1 c18 -21 0 -48 -35 -52 -24 -3 -26 0 -26
32 0 31 3 36 24 36 13 0 29 -7 37 -16z m189 6 c0 -5 -4 -10 -10 -10 -5 0 -10
-11 -10 -25 0 -14 -4 -25 -10 -25 -5 0 -10 11 -10 25 0 14 -4 25 -10 25 -5 0
-10 5 -10 10 0 6 14 10 30 10 17 0 30 -4 30 -10z m97 -28 c11 -28 11 -32 -2
-32 -8 0 -15 5 -15 11 0 8 -5 7 -15 -1 -22 -18 -27 -8 -14 29 13 38 28 36 46
-7z m110 24 c-3 -8 -1 -16 5 -18 7 -3 9 -12 5 -21 -7 -18 -57 -24 -57 -7 0 6
5 10 12 10 9 0 9 3 1 11 -16 16 -5 39 19 39 13 0 18 -5 15 -14z m123 4 c0 -5
-4 -10 -10 -10 -5 0 -10 -11 -10 -25 0 -14 -4 -25 -10 -25 -5 0 -10 11 -10 25
0 14 -4 25 -10 25 -5 0 -10 5 -10 10 0 6 14 10 30 10 17 0 30 -4 30 -10z m78
-2 c9 -9 12 -9 12 0 0 7 6 12 14 12 11 0 10 -6 -3 -35 -9 -19 -18 -34 -21 -35
-3 0 -10 16 -16 35 -11 36 -7 44 14 23z"/>
<path d="M2310 3949 c-157 -28 -346 -116 -470 -221 -159 -134 -290 -370 -290
-522 l0 -36 950 0 950 0 0 28 c0 53 -38 179 -78 258 -112 223 -323 392 -587
470 -78 23 -112 27 -255 30 -91 1 -190 -1 -220 -7z m-145 -129 c33 -36 11 -67
-87 -124 -165 -96 -265 -208 -288 -324 -14 -64 -33 -92 -65 -92 -41 0 -59 33
-52 97 15 149 159 317 372 435 60 33 95 35 120 8z"/>
<path d="M1599 1977 c-18 -12 -39 -34 -46 -47 -17 -34 -16 -163 1 -204 29 -71
-36 -66 939 -66 974 0 924 -3 953 65 19 47 18 168 -2 211 -32 67 17 64 -942
64 l-869 0 -34 -23z"/>
<path d="M2055 1305 c-14 -13 -25 -36 -25 -50 0 -33 42 -75 75 -75 33 0 75 42
75 75 0 14 -11 37 -25 50 -13 14 -36 25 -50 25 -14 0 -37 -11 -50 -25z"/>
<path d="M2305 955 c-14 -13 -25 -36 -25 -50 0 -33 42 -75 75 -75 33 0 75 42
75 75 0 33 -42 75 -75 75 -14 0 -37 -11 -50 -25z"/>
<path d="M2575 955 c-14 -13 -25 -36 -25 -50 0 -33 42 -75 75 -75 33 0 75 42
75 75 0 33 -42 75 -75 75 -14 0 -37 -11 -50 -25z"/>
<path d="M2840 905 c0 -74 0 -75 25 -75 33 0 75 42 75 75 0 33 -42 75 -75 75
-25 0 -25 -1 -25 -75z"/>
<path d="M2750 615 c0 -8 5 -15 10 -15 6 0 10 7 10 15 0 8 -4 15 -10 15 -5 0
-10 -7 -10 -15z"/>
</g>
</svg>
